<?xml version="1.0" encoding="utf-8"?>
<!-- Generator: Adobe Illustrator 16.0.0, SVG Export Plug-In . SVG Version: 6.00 Build 0)  -->
<!DOCTYPE svg PUBLIC "-//W3C//DTD SVG 1.1//EN" "http://www.w3.org/Graphics/SVG/1.1/DTD/svg11.dtd">
<svg version="1.1" id="Layer_1" xmlns="http://www.w3.org/2000/svg" xmlns:xlink="http://www.w3.org/1999/xlink" x="0px" y="0px"
	 width="1000px" height="1000px" viewBox="0 0 1000 1000" enable-background="new 0 0 1000 1000" xml:space="preserve">
<g transform="translate(1 1)">
	<path fill="#1109B5" d="M932.334,974H665.666c-26.666,0-50-21.666-50-50V374c0-26.666,21.666-50,50-50h266.666
		c26.666,0,50,21.666,50,50v550C982.334,952.334,960.666,974,932.334,974"/>
	<g>
		<path fill="#1962A3" d="M882.334,974H665.666c-26.666,0-50-21.666-50-50V374c0-26.666,21.666-50,50-50h216.666
			c26.666,0,50,21.666,50,50v550C932.334,952.334,910.666,974,882.334,974"/>
		<path fill="#CE3272" d="M615.666,424h-600v46.666C15.666,500.666,39,524,69,524h546.666V424z"/>
	</g>
	<path fill="#77082D" d="M615.666,374c0-26.666,21.666-50,50-50l0,0V74c0-26.666-23.334-50-51.666-50H100.666
		C72.334,24,49,47.334,49,75.666V424h566.666V374z"/>
	<polygon fill="#1CD759" points="715.666,757.334 882.334,757.334 882.334,640.666 715.666,640.666 	"/>
	<polygon fill="#6D08BC" points="115.666,424 599,424 599,90.666 115.666,90.666 	"/>
	<polygon fill="#1CD759" points="282.334,357.334 449,357.334 449,240.666 282.334,240.666 	"/>
	<path d="M932.334,990.666H665.666C629,990.666,599,960.666,599,924V374c0-36.666,30-66.666,66.666-66.666h266.666
		C969,307.334,999,337.334,999,374v550C999,960.666,969,990.666,932.334,990.666z M665.666,340.666
		c-18.334,0-33.334,15-33.334,33.334v550c0,18.334,15,33.334,33.334,33.334h266.666c18.334,0,33.334-15,33.334-33.334V374
		c0-18.334-15-33.334-33.334-33.334H665.666z"/>
	<path d="M999,857.334H599V440.666h400V857.334z M632.334,824h333.334V474H632.334V824z"/>
	<path d="M832.334,407.334h-66.666c-10,0-16.666-6.666-16.666-16.666s6.666-16.666,16.666-16.666h66.666
		c10,0,16.666,6.666,16.666,16.666C849,400.666,842.334,407.334,832.334,407.334z"/>
	<path d="M832.334,924h-66.666c-10,0-16.666-6.666-16.666-16.666s6.666-16.666,16.666-16.666h66.666
		c10,0,16.666,6.666,16.666,16.666S842.334,924,832.334,924z"/>
	<path d="M599,607.334c-10,0-16.666-6.666-16.666-16.666V574c0-10,6.666-16.666,16.666-16.666S615.666,564,615.666,574v16.666
		C615.666,600.666,609,607.334,599,607.334z"/>
	<path d="M599,674c-10,0-16.666-6.666-16.666-16.666v-16.666c0-10,6.666-16.666,16.666-16.666s16.666,6.666,16.666,16.666v16.666
		C615.666,667.334,609,674,599,674z"/>
	<path d="M882.334,774H715.668c-10,0-16.666-6.666-16.666-16.666V640.668c0-10,6.666-16.666,16.666-16.666h166.666
		c10,0,16.666,6.666,16.666,16.666v116.666C899,767.334,892.334,774,882.334,774z M732.334,740.666h133.334v-83.334H732.334V740.666
		z"/>
	<path d="M849,657.334H749c-10,0-16.666-6.666-16.666-16.666v-50c0-36.666,30-66.666,66.666-66.666s66.666,30,66.666,66.666v50
		C865.666,650.666,859,657.334,849,657.334z M765.666,624h66.666v-33.334c0-18.334-15-33.334-33.334-33.334
		s-33.334,15-33.334,33.334V624H765.666z"/>
	<path d="M449,374H282.334c-10,0-16.666-6.666-16.666-16.666V240.668c0-10,6.666-16.666,16.666-16.666H449
		c10,0,16.666,6.666,16.666,16.666v116.666C465.666,367.334,459,374,449,374z M299,340.666h133.334v-83.334H299V340.666z"/>
	<path d="M415.666,257.334h-100c-10,0-16.666-6.666-16.666-16.666v-33.334c0-36.666,30-66.666,66.666-66.666
		s66.666,30,66.666,66.666v33.334C432.334,250.666,425.666,257.334,415.666,257.334z M332.334,224H399v-16.666
		C399,189,384,174,365.666,174s-33.334,15-33.334,33.334V224H332.334z"/>
	<path d="M599,440.666H115.666C105.666,440.666,99,434,99,424V90.666c0-10,6.666-16.666,16.666-16.666H599
		c10,0,16.666,6.666,16.666,16.666V424C615.666,434,609,440.666,599,440.666z M132.334,407.334h450v-300h-450V407.334z"/>
	<path d="M632.334,440.666h-600v-365c0-38.334,30-68.334,68.334-68.334H614c38.334,0,68.334,30,68.334,68.334v260l-23.334,5
		c-18.334,0-26.666,16.666-26.666,35V440.666L632.334,440.666z M65.666,407.334H599V374c0-31.666,21.666-56.666,50-63.334v-235
		c0-20-15-35-35-35H100.666c-20,0-35,15-35,35V407.334z"/>
	<path d="M615.666,540.666H69c-38.334,0-70-31.666-70-70V424c0-10,6.666-16.666,16.666-16.666h600c10,0,16.666,6.666,16.666,16.666
		v100C632.334,534,625.666,540.666,615.666,540.666z M32.334,440.666v30c0,20,16.666,36.666,36.666,36.666h530v-66.666H32.334z"/>
	<path d="M899,274c-10,0-16.666-6.666-16.666-16.666V90.666C882.334,80.666,889,74,899,74s16.666,6.666,16.666,16.666v166.666
		C915.666,267.334,909,274,899,274z"/>
	<path d="M899,274c-5,0-8.334-1.666-11.666-5c-6.666-6.666-6.666-16.666,0-23.334l50-50C944,189,954,189,960.668,195.666
		c6.666,6.666,6.666,16.666,0,23.334l-50,50C907.334,272.334,904,274,899,274z"/>
	<path d="M899,274c-5,0-8.334-1.666-11.666-5l-50-50c-6.666-6.666-6.666-16.666,0-23.334C844,189,854,189,860.668,195.666l50,50
		c6.666,6.666,6.666,16.666,0,23.334C907.334,272.334,904,274,899,274z"/>
	<path d="M899,107.334H732.334c-10,0-16.666-6.666-16.666-16.666s6.666-16.666,16.666-16.666H899c10,0,16.666,6.666,16.666,16.666
		S909,107.334,899,107.334z"/>
	<path d="M782.334,157.334c-5,0-8.334-1.666-11.666-5l-50-50c-6.666-6.666-6.666-16.666,0-23.334s16.666-6.666,23.334,0l50,50
		c6.666,6.666,6.666,16.666,0,23.334C790.666,155.666,787.334,157.334,782.334,157.334z"/>
	<path d="M732.334,107.334c-5,0-8.334-1.666-11.666-5c-6.666-6.666-6.666-16.666,0-23.334l50-50c6.666-6.666,16.666-6.666,23.334,0
		c6.666,6.666,6.666,16.666,0,23.334l-50,50C740.666,105.666,737.334,107.334,732.334,107.334z"/>
	<path d="M232.334,840.666c-10,0-16.666-6.666-16.666-16.666V657.334c0-10,6.666-16.666,16.666-16.666S249,647.334,249,657.334V824
		C249,834,242.334,840.666,232.334,840.666z"/>
	<path d="M182.334,724c-5,0-8.334-1.666-11.666-5c-6.666-6.666-6.666-16.666,0-23.334l50-50c6.666-6.666,16.666-6.666,23.334,0
		c6.666,6.666,6.666,16.666,0,23.334l-50,50C190.666,722.334,187.334,724,182.334,724z"/>
	<path d="M282.334,724c-5,0-8.334-1.666-11.666-5l-50-50c-6.666-6.666-6.666-16.666,0-23.334c6.666-6.666,16.666-6.666,23.334,0
		l50,50c6.666,6.666,6.666,16.666,0,23.334C290.666,722.334,287.334,724,282.334,724z"/>
	<path d="M399,840.666H232.334c-10,0-16.666-6.666-16.666-16.666s6.666-16.666,16.666-16.666H399c10,0,16.666,6.666,16.666,16.666
		S409,840.666,399,840.666z"/>
	<path d="M399,840.666c-5,0-8.334-1.666-11.666-5l-50-50c-6.666-6.666-6.666-16.666,0-23.334c6.666-6.666,16.666-6.666,23.334,0
		l50,50c6.666,6.666,6.666,16.666,0,23.334C407.334,839,404,840.666,399,840.666z"/>
	<path d="M349,890.666c-5,0-8.334-1.666-11.666-5c-6.666-6.666-6.666-16.666,0-23.334l50-50c6.666-6.666,16.666-6.666,23.334,0
		c6.666,6.666,6.666,16.666,0,23.334l-50,50C357.334,889,354,890.666,349,890.666z"/>
</g>
</svg>
