<?xml version="1.0" encoding="utf-8"?>
<!-- Generator: Adobe Illustrator 16.0.0, SVG Export Plug-In . SVG Version: 6.00 Build 0)  -->
<!DOCTYPE svg PUBLIC "-//W3C//DTD SVG 1.1//EN" "http://www.w3.org/Graphics/SVG/1.1/DTD/svg11.dtd">
<svg version="1.1" id="Layer_1" xmlns="http://www.w3.org/2000/svg" xmlns:xlink="http://www.w3.org/1999/xlink" x="0px" y="0px"
	 width="1000px" height="1000px" viewBox="0 0 1000 1000" enable-background="new 0 0 1000 1000" xml:space="preserve">
<path fill="#F1F4FB" d="M232.777,900.836H32.359c-9.223,0-16.701-7.479-16.701-16.701V115.867c0-9.223,7.479-16.701,16.701-16.701
	h200.418V900.836z"/>
<path fill="#D5DCED" d="M182.672,99.164v301.764c-56.635,6.963-100.209,48.6-100.209,99.072s43.574,92.107,100.209,99.07v301.764
	h50.104v-304.83V403.996V99.164H182.672z"/>
<g>
	<path fill="#5B5D6E" d="M717.119,15.658H282.881c-27.672,0-50.104,22.432-50.104,50.104v83.508h534.447V65.762
		C767.223,38.09,744.791,15.658,717.119,15.658z"/>
	<path fill="#5B5D6E" d="M282.881,984.342h434.238c27.672,0,50.104-22.432,50.104-50.104V850.73H232.777v83.508
		C232.777,961.91,255.209,984.342,282.881,984.342z"/>
</g>
<rect x="232.777" y="149.27" fill="#E4EAF8" width="534.447" height="50.104"/>
<path fill="#1A4BB7" d="M934.238,717.119h-567.85c-27.672,0-50.104-22.432-50.104-50.104V332.986
	c0-27.672,22.432-50.104,50.104-50.104h567.85c27.672,0,50.104,22.432,50.104,50.104v334.029
	C984.342,694.688,961.91,717.119,934.238,717.119z"/>
<path fill="#FFDC64" d="M500,449.896h-66.807c-9.223,0-16.701-7.479-16.701-16.701v-33.402c0-9.223,7.479-16.701,16.701-16.701H500
	c9.223,0,16.701,7.479,16.701,16.701v33.402C516.701,442.418,509.223,449.896,500,449.896z"/>
<circle fill="#FF5050" cx="783.926" cy="399.791" r="50.104"/>
<circle fill="#FFDC64" cx="867.432" cy="399.791" r="50.104"/>
<g>
	<circle fill="#8CE16E" cx="199.373" cy="299.582" r="33.402"/>
	<circle fill="#8CE16E" cx="199.373" cy="700.418" r="33.402"/>
</g>
<path d="M533.402,901.879h-66.807c-8.646,0-15.658,7.01-15.658,15.658s7.01,15.658,15.658,15.658h66.807
	c8.646,0,15.658-7.01,15.658-15.658S542.051,901.879,533.402,901.879z"/>
<path d="M466.598,98.121h66.807c8.646,0,15.658-7.01,15.658-15.658s-7.01-15.658-15.658-15.658h-66.807
	c-8.646,0-15.658,7.01-15.658,15.658S457.949,98.121,466.598,98.121z"/>
<path d="M416.492,98.121h0.168c8.646,0,15.574-7.01,15.574-15.658s-7.094-15.658-15.74-15.658s-15.658,7.01-15.658,15.658
	S407.846,98.121,416.492,98.121z"/>
<path d="M934.238,267.223H782.881V65.762C782.881,29.5,753.379,0,717.119,0H282.881c-36.262,0-65.762,29.502-65.762,65.762v17.746
	H32.359C14.516,83.508,0,98.023,0,115.867v768.268c0,17.844,14.516,32.359,32.359,32.359h184.76v17.746
	c0,36.262,29.502,65.762,65.762,65.762h434.238c36.262,0,65.762-29.502,65.762-65.762V732.777h151.357
	c36.262,0,65.762-29.502,65.762-65.762V332.986C1000,296.725,970.498,267.223,934.238,267.223z M248.434,65.762
	c0-18.994,15.453-34.447,34.447-34.447h434.238c18.994,0,34.447,15.453,34.447,34.447v67.85H248.434V65.762z M98.121,574.674
	c24.336,25.166,60.686,41.191,101.252,41.191c5.959,0,11.883-0.357,17.746-1.041v39.869c-5.508-2.145-11.488-3.334-17.746-3.334
	c-27.053-0.002-49.061,22.006-49.061,49.059s22.008,49.061,49.061,49.061c6.256,0,12.238-1.189,17.746-3.334v72.227h-53.684
	c-6.357-32.936-32.381-58.959-65.314-65.314V574.674z M217.119,253.855c-5.508-2.145-11.488-3.334-17.746-3.334
	c-27.053,0-49.061,22.008-49.061,49.061s22.008,49.061,49.061,49.061c6.256,0,12.238-1.189,17.746-3.334v39.869
	c-5.861-0.686-11.787-1.041-17.746-1.041c-40.568,0-76.916,16.025-101.252,41.191V246.943c32.936-6.357,58.959-32.381,65.314-65.314
	h53.684V253.855L217.119,253.855z M217.119,299.582c0,9.785-7.961,17.746-17.746,17.746s-17.746-7.961-17.746-17.746
	s7.961-17.746,17.746-17.746C209.158,281.838,217.119,289.797,217.119,299.582z M199.373,415.449c5.986,0,11.91,0.488,17.746,1.354
	v35.525c-21.094,5.922-28.475,29.512-32.691,43.002c-6.861,21.961-10.459,22.404-13.078,22.416
	c-1.852-0.775-6.424-7.131-6.424-17.746c0-10.789,4.654-17.088,6.506-17.777c8.104-3.014,12.232-12.029,9.219-20.133
	c-3.012-8.104-12.027-12.234-20.133-9.219c-12.131,4.512-21.254,16.387-25.014,31.471h-2.936c-8.646,0-15.658,7.01-15.658,15.658
	s7.01,15.658,15.658,15.658h2.938c4.9,19.604,18.826,33.402,35.686,33.402c29.256,0,38.279-28.877,43.129-44.391
	c1.002-3.205,1.932-5.938,2.799-8.291v86.818c-5.836,0.865-11.76,1.354-17.746,1.354c-55.83,0-101.252-37.928-101.252-84.551
	S143.543,415.449,199.373,415.449z M217.119,700.418c0,9.785-7.961,17.746-17.746,17.746s-17.746-7.961-17.746-17.746
	s7.961-17.746,17.746-17.746S217.119,690.633,217.119,700.418z M32.359,885.178c-0.576,0-1.043-0.467-1.043-1.043V115.867
	c0-0.576,0.467-1.043,1.043-1.043h184.76v35.488h-67.85c-8.646,0-15.658,7.01-15.658,15.658c0,28.203-22.945,51.148-51.148,51.148
	c-8.646,0-15.658,7.01-15.658,15.658v534.447c0,8.646,7.01,15.658,15.658,15.658c28.203,0,51.148,22.945,51.148,51.148
	c0,8.646,7.01,15.658,15.658,15.658h67.85v35.49H32.359V885.178z M717.119,968.686H282.881c-18.994,0-34.447-15.453-34.447-34.447
	v-67.85h503.131v67.85C751.566,953.232,736.113,968.686,717.119,968.686z M751.566,835.072H248.434V164.928h503.131v102.297H366.389
	c-36.262,0-65.762,29.502-65.762,65.762v334.029c0,36.262,29.502,65.762,65.762,65.762h385.178V835.072z M968.686,667.014
	c0,18.994-15.453,34.447-34.447,34.447h-567.85c-18.994,0-34.447-15.453-34.447-34.447V332.986
	c0-18.994,15.453-34.447,34.447-34.447h400.754c0.027,0,0.055,0.004,0.082,0.004s0.055-0.004,0.082-0.004H934.24
	c18.994,0,34.447,15.453,34.447,34.447v334.027H968.686z"/>
<path d="M632.568,516.701c0-8.646-7.01-15.658-15.658-15.658h-66.807c-8.646,0-15.658,7.01-15.658,15.658
	c0,8.646,7.01,15.658,15.658,15.658h66.807C625.557,532.359,632.568,525.35,632.568,516.701z"/>
<path d="M416.492,532.359h66.807c8.646,0,15.658-7.01,15.658-15.658c0-8.646-7.01-15.658-15.658-15.658h-66.807
	c-8.646,0-15.658,7.01-15.658,15.658C400.836,525.35,407.846,532.359,416.492,532.359z"/>
<path d="M683.717,567.85h-33.404c-8.646,0-15.658,7.01-15.658,15.658c0,8.646,7.01,15.658,15.658,15.658h33.402
	c8.646,0,15.658-7.01,15.658-15.658S692.363,567.85,683.717,567.85z"/>
<path d="M516.701,634.656H416.492c-8.646,0-15.658,7.01-15.658,15.658c0,8.646,7.01,15.658,15.658,15.658h100.209
	c8.646,0,15.658-7.01,15.658-15.658S525.35,634.656,516.701,634.656z"/>
<path d="M633.611,634.656h-50.104c-8.646,0-15.658,7.01-15.658,15.658c0,8.646,7.01,15.658,15.658,15.658h50.104
	c8.646,0,15.658-7.01,15.658-15.658S642.26,634.656,633.611,634.656z"/>
<path d="M783.926,567.85h-33.402c-8.646,0-15.658,7.01-15.658,15.658c0,8.646,7.01,15.658,15.658,15.658h33.402
	c8.646,0,15.658-7.01,15.658-15.658C799.582,574.859,792.572,567.85,783.926,567.85z"/>
<path d="M884.133,501.043h-66.807c-8.646,0-15.658,7.01-15.658,15.658c0,8.646,7.01,15.658,15.658,15.658h66.807
	c8.646,0,15.658-7.01,15.658-15.658C899.791,508.055,892.781,501.043,884.133,501.043z"/>
<path d="M683.717,532.359h66.807c8.646,0,15.658-7.01,15.658-15.658c0-8.646-7.01-15.658-15.658-15.658h-66.807
	c-8.646,0-15.658,7.01-15.658,15.658S675.068,532.359,683.717,532.359z"/>
<path d="M500,367.432h-66.807c-17.844,0-32.359,14.516-32.359,32.359v33.402c0,17.844,14.516,32.359,32.359,32.359H500
	c17.844,0,32.359-14.516,32.359-32.359v-33.402C532.359,381.947,517.844,367.432,500,367.432z M501.043,433.193
	c0,0.576-0.467,1.043-1.043,1.043h-66.807c-0.576,0-1.043-0.467-1.043-1.043v-33.402c0-0.576,0.467-1.043,1.043-1.043H500
	c0.576,0,1.043,0.467,1.043,1.043V433.193z"/>
<path d="M867.432,334.029c-15.84,0-30.389,5.631-41.754,14.994c-11.365-9.363-25.914-14.994-41.754-14.994
	c-36.262,0-65.762,29.502-65.762,65.762s29.502,65.762,65.762,65.762c15.84,0,30.389-5.631,41.754-14.994
	c11.365,9.363,25.914,14.994,41.754,14.994c36.262,0,65.762-29.502,65.762-65.762S903.693,334.029,867.432,334.029z
	 M749.479,399.791c0-18.994,15.453-34.447,34.447-34.447c8.816,0,16.844,3.357,22.943,8.824c-3.344,7.879-5.199,16.537-5.199,25.623
	s1.852,17.744,5.199,25.623c-6.1,5.467-14.127,8.824-22.943,8.824C764.932,434.238,749.479,418.785,749.479,399.791z
	 M867.432,434.238c-8.816,0-16.844-3.357-22.943-8.824c3.344-7.879,5.199-16.537,5.199-25.623s-1.852-17.744-5.199-25.623
	c6.098-5.467,14.127-8.824,22.943-8.824c18.994,0,34.447,15.453,34.447,34.447S886.426,434.238,867.432,434.238z"/>
<path d="M82.463,818.289c-8.646,0-15.74,7.094-15.74,15.74s7.094,15.74,15.74,15.74s15.74-7.094,15.74-15.74
	C98.205,825.383,91.111,818.289,82.463,818.289z"/>
<path d="M82.463,181.629c8.646,0,15.74-7.094,15.74-15.74s-7.094-15.74-15.74-15.74s-15.74,7.094-15.74,15.74
	S73.816,181.629,82.463,181.629z"/>
</svg>
