<?xml version="1.0" encoding="utf-8"?>
<!-- Generator: Adobe Illustrator 16.0.0, SVG Export Plug-In . SVG Version: 6.00 Build 0)  -->
<!DOCTYPE svg PUBLIC "-//W3C//DTD SVG 1.1//EN" "http://www.w3.org/Graphics/SVG/1.1/DTD/svg11.dtd">
<svg version="1.1" id="Layer_1" xmlns="http://www.w3.org/2000/svg" xmlns:xlink="http://www.w3.org/1999/xlink" x="0px" y="0px"
	 width="1000px" height="1000px" viewBox="0 0 1000 1000" enable-background="new 0 0 1000 1000" xml:space="preserve">
<g transform="translate(1 1)">
	<path fill="#F95A0B" d="M324,732.334c-28.334,0-50-21.666-50-50v-400c0-28.334,21.666-50,50-50h266.666V65.666
		c0-26.666-21.666-50-50-50H107.334c-28.334,0-50,21.666-50,50v866.666c0,26.666,21.666,50,50,50h433.334c26.666,0,50-21.666,50-50
		v-200H324V732.334z"/>
	<path fill="#4247BA" d="M324,732.334c-28.334,0-50-21.666-50-50v-400c0-28.334,21.666-50,50-50h266.666V115.666H57.334V849h533.334
		V732.334H324z"/>
	<path fill="#FFFFFF" d="M90.666,932.334V65.666c0-26.666,21.666-50,50-50h-33.332c-26.666,0-50,21.666-50,50v866.666
		c0,26.666,21.666,50,50,50h33.334C114,982.334,90.666,960.666,90.666,932.334"/>
	<path fill="#D81E6A" d="M907.334,732.334H324c-28.334,0-50-21.666-50-50v-400c0-28.334,21.666-50,50-50h583.334
		c28.334,0,50,21.666,50,50v400C957.334,710.666,935.666,732.334,907.334,732.334"/>
	<polygon fill="#514CC1" points="274,415.666 957.334,415.666 957.334,315.666 274,315.666 	"/>
	<path fill="#7318D3" d="M907.334,232.334H874c28.334,0,50,21.666,50,50v400c0,28.334-21.666,50-50,50h33.334
		c28.334,0,50-21.666,50-50v-400C957.334,254,935.666,232.334,907.334,232.334"/>
	<polygon fill="#54C9FD" points="674,665.666 890.666,665.666 890.666,549 674,549 	"/>
	<polygon fill="#33A9F8" points="857.334,665.666 890.666,665.666 890.666,549 857.334,549 	"/>
	<path d="M390.666,82.334h-83.334c-10,0-16.666-6.666-16.666-16.666s6.666-16.666,16.666-16.666h83.334
		c10,0,16.666,6.666,16.666,16.666S400.666,82.334,390.666,82.334z"/>
	<path d="M257.334,82.334h-16.666c-10,0-16.666-6.666-16.666-16.666s6.666-16.666,16.666-16.666h16.666
		c10,0,16.666,6.666,16.666,16.666S267.334,82.334,257.334,82.334z"/>
	<path d="M40.666,199c-10,0-16.666-6.666-16.666-16.666v-16.666c0-10,6.666-16.666,16.666-16.666s16.666,6.666,16.666,16.666v16.666
		C57.334,192.334,50.666,199,40.666,199z"/>
	<path d="M40.666,265.666C30.666,265.666,24,259,24,249v-16.666c0-10,6.666-16.666,16.666-16.666s16.666,6.666,16.666,16.666V249
		C57.334,259,50.666,265.666,40.666,265.666z"/>
	<path d="M40.666,332.334c-10,0-16.666-6.666-16.666-16.666V299c0-10,6.666-16.666,16.666-16.666S57.332,289,57.332,299v16.666
		C57.334,325.666,50.666,332.334,40.666,332.334z"/>
	<path d="M324,982.334c-36.666,0-66.666-30-66.666-66.666s30-66.666,66.666-66.666s66.666,30,66.666,66.666
		S360.666,982.334,324,982.334z M324,882.334c-18.334,0-33.334,15-33.334,33.334s15,33.334,33.334,33.334s33.334-15,33.334-33.334
		S342.334,882.334,324,882.334z"/>
	<path d="M907.334,749H324c-36.666,0-66.666-30-66.666-66.666v-400c0-36.666,30-66.666,66.666-66.666h583.334
		c36.666,0,66.666,30,66.666,66.666v400C974,719,944,749,907.334,749z M324,249c-18.334,0-33.334,15-33.334,33.334v400
		c0,18.334,15,33.334,33.334,33.334h583.334c18.334,0,33.334-15,33.334-33.334v-400c0-18.334-15-33.334-33.334-33.334H324z"/>
	<path d="M957.334,432.334H274c-10,0-16.666-6.666-16.666-16.666v-100c0-10,6.666-16.666,16.666-16.666h683.334
		c10,0,16.666,6.666,16.666,16.666v100C974,425.666,967.334,432.334,957.334,432.334z M290.666,399h650v-66.666h-650V399z"/>
	<path d="M890.666,682.334H674c-10,0-16.666-6.666-16.666-16.666V549c0-10,6.666-16.666,16.666-16.666h216.666
		c10,0,16.666,6.666,16.666,16.666v116.666C907.334,675.666,900.666,682.334,890.666,682.334z M690.666,649H874v-83.334H690.666V649
		z"/>
	<path d="M424,515.666h-83.334C330.666,515.666,324,509,324,499s6.666-16.666,16.666-16.666H424c10,0,16.666,6.666,16.666,16.666
		S434,515.666,424,515.666z"/>
	<path d="M589,515.666H480.666C470.666,515.666,464,509,464,499s6.666-16.666,16.666-16.666H589c10,0,16.666,6.666,16.666,16.666
		S599,515.666,589,515.666z"/>
	<path d="M505.666,582.334h-165c-10,0-16.666-6.666-16.666-16.666s6.666-16.666,16.666-16.666h165c10,0,16.666,6.666,16.666,16.666
		C522.334,575.666,514,582.334,505.666,582.334z"/>
	<path d="M589,582.334h-31.666c-10,0-16.666-6.666-16.666-16.666s6.666-16.666,16.666-16.666H589c10,0,16.666,6.666,16.666,16.666
		C605.666,575.666,599,582.334,589,582.334z"/>
	<path d="M607.334,865.666H40.666V99h566.666v150H324c-18.334,0-33.334,15-33.334,33.334v400c0,18.334,15,33.334,33.334,33.334
		h283.334V865.666L607.334,865.666z M74,832.334h500V749H324c-36.666,0-66.666-30-66.666-66.666v-400
		c0-36.666,30-66.666,66.666-66.666h250v-83.334H74V832.334z"/>
	<path d="M540.666,999H107.334c-36.666,0-66.666-30-66.666-66.666V65.666C40.666,29,70.666-1,107.334-1h433.334
		c36.666,0,66.666,30,66.666,66.666V249H324c-18.334,0-33.334,15-33.334,33.334v400c0,18.334,15,33.334,33.334,33.334h283.334
		v216.666C607.334,969,577.334,999,540.666,999z M107.334,32.334C89,32.334,74,47.334,74,65.668v866.666
		c0,18.334,15,33.334,33.334,33.334h433.334c18.334,0,33.334-15,33.334-33.334V749h-250c-36.666,0-66.666-30-66.666-66.666v-400
		c0-36.666,30-66.666,66.666-66.666h250v-150c0-18.334-15-33.334-33.334-33.334H107.334z"/>
</g>
</svg>
